<svg id="Capa_1" data-name="Capa 1" xmlns="http://www.w3.org/2000/svg" viewBox="0 0 1807.66 615.83"><defs><style>.cls-1{fill:#304288;}.cls-2{fill:#233066;}.cls-3{fill:#fff;}</style></defs><title>Logotipo UCh 2</title><path class="cls-1" d="M683.08,209.81c0,15.21,8.53,25.08,23.91,25.08,15.56,0,23.92-9.81,23.92-25.08V158.08h4.18V210c0,17.36-10.16,28.85-28.1,28.85S679,227.34,679,210v-51.9h4.13Z"/><path class="cls-1" d="M768.69,237v-78.9H773l46.09,71.58h.23V158.08h4.12V237h-4.29L773,165.4h-.24V237Z"/><path class="cls-1" d="M858.77,237v-78.9h4.12V237Z"/><path class="cls-1" d="M919.31,237l-28.62-78.9h4.53l26.41,73.84h.23l26.82-73.84h4.47L924,237Z"/><path class="cls-1" d="M1025,237H980.19v-78.9H1025v3.84H984.31V194.6H1023v3.83H984.31v34.71H1025Z"/><path class="cls-1" d="M1104.88,180.09c0,12.25-7.44,19-17.07,21.24L1106.15,237h-4.81l-17.94-34.84h-23.75V237h-4.12v-78.9h25.6C1095.82,158.08,1104.88,167,1104.88,180.09Zm-24.44,18.34c12.36,0,20.2-7,20.2-18.29s-7.84-18.34-20.15-18.34h-20.84v36.63Z"/><path class="cls-1" d="M1135.63,217.12c.23,7.14,5.92,17.88,23,17.88,13.41,0,22.35-7.49,22.35-17.65s-6.68-14.16-19.1-17.53l-9.81-2.61c-11.09-2.9-18.06-8.77-18.06-20,0-12.6,9.82-21,25.08-21,15.74,0,24.5,9,24.62,19.63h-4.24c-.23-7.14-5.92-15.79-20.43-15.79-13,0-20.73,6.91-20.73,17.18,0,9.23,5.63,13.47,15.85,16.26l9.46,2.55c13.88,3.83,21.65,8.47,21.65,21.07,0,13.41-11.2,21.71-27,21.71-20,0-26.76-12.94-26.82-21.71Z"/><path class="cls-1" d="M1216.14,237v-78.9h4.12V237Z"/><path class="cls-1" d="M1276.33,158.08c24.78,0,35.41,15.33,35.41,39.42S1301.52,237,1276.33,237h-20.67v-78.9Zm-16.55,75.06h16.6c21.89,0,31.18-13.76,31.18-35.64,0-21.71-9.52-35.58-31.18-35.58h-16.6Z"/><path class="cls-1" d="M1334.54,237l28.27-78.9h4.41l28.33,78.9h-4.41l-9.46-26.88h-33.32L1338.89,237Zm30.36-73.85-15.33,43.43h30.83l-15.21-43.43Z"/><path class="cls-1" d="M1443.08,158.08c24.79,0,35.41,15.33,35.41,39.42S1468.28,237,1443.08,237h-20.66v-78.9Zm-16.54,75.06h16.6c21.89,0,31.17-13.76,31.17-35.64,0-21.71-9.52-35.58-31.17-35.58h-16.6Z"/><path class="cls-1" d="M691.1,329.33c0,21.47,9.06,33.37,25.07,33.37,13.92,0,22.73-9.14,23-22H761v2.19c0,23-19,38.9-45,38.9-30.52,0-47.87-20-47.87-52.66V316.08c0-32.87,17.35-53.08,47.87-53.08,26.08,0,45,16.36,45,40.25v2.1h-21.8c-.25-13.58-9.06-23.23-23-23.23-16,0-25.07,12.08-25.07,33.88Z"/><path class="cls-1" d="M850.67,379.64V330.59h-48v49.05H780V265.19h22.65v46.53h48V265.19H873.4V379.64Z"/><path class="cls-1" d="M886.81,379.64l38.41-114.45H951.8L990,379.64H965.89l-9-29.43H918.76l-9.06,29.43Zm50.65-92.57-14,46.29h28.92l-13.91-46.29Z"/><path class="cls-1" d="M1003.7,379.64V265.19h23.06l32.62,73.87h.67l32.7-73.87h22.89V379.64h-20.37V304h-.93L1067,365.3h-14.76L1024.83,304h-.92v75.63Z"/><path class="cls-1" d="M1186,265.19c24.56,0,38.65,16.68,38.65,38.15,0,21.8-14.25,37.9-38.91,37.9h-22.89v38.4h-22.64V265.19Zm-23.23,58.27h13.58c15.77,0,25.24-4.61,25.24-20.12,0-12.83-7.46-20.13-19.95-20.13h-18.87Z"/><path class="cls-1" d="M1226,379.64l38.4-114.45H1291l38.15,114.45h-24.07l-9-29.43h-38.15l-9.06,29.43Zm50.65-92.57-14,46.29h28.92l-13.91-46.29Z"/><path class="cls-1" d="M1408,301.83c-1.42-11.82-9.89-19.79-23.48-19.79-16.43,0-25.74,11.74-25.74,32.2v15c0,20.21,8,33.62,26.41,33.62,14.51,0,23.48-9.05,23.48-20.71v-7.29h-23.56V318h45.11v22.81c0,22.05-16.1,41-45.44,41-33.29,0-48.81-21.3-48.81-52.49V314.07c0-30.77,17.61-51.07,48.64-51.07,28.26,0,44.52,17.53,45.45,38.83Z"/><path class="cls-1" d="M1450,379.64V265.19h18.87l50.73,76.13h.75V265.19h21.13V379.64h-18.78l-50.9-76.55h-.67v76.55Z"/><path class="cls-1" d="M1554.86,379.64l38.4-114.45h26.58L1658,379.64h-24.07l-9-29.43h-38.15l-9.06,29.43Zm50.64-92.57-14,46.29h28.93l-13.92-46.29Z"/><path class="cls-1" d="M1685.08,379.64V284.13h-32.53V265.19h87.71v18.94h-32.54v95.51Z"/><path class="cls-1" d="M527.18,310.32V72.52H249.65v67.22l-38.78-17.29-38.8,17.29V72.52H102.7v237.8c0,94.68,62,174.81,147.65,202.14,2.33.75,4.67,1.47,7,2.13l.05.13a212.17,212.17,0,0,0,126.44-3.55l29.42-12.63a212.6,212.6,0,0,0,108.93-142.7c.37-1.68.76-3.35,1.09-5l0-.1h0A213.11,213.11,0,0,0,527.18,310.32Z"/><path class="cls-1" d="M314.94,542.91C187.05,542.91,83,438.86,83,311V52.17H546.89V311C546.89,438.86,442.84,542.91,314.94,542.91ZM89.45,58.62V311c0,124.34,101.16,225.5,225.49,225.5S540.44,435.3,540.44,311V58.62Z"/><path class="cls-1" d="M413.29,498.54l-29.42,12.63A210.83,210.83,0,0,0,413.29,498.54Z"/><path class="cls-2" d="M255.36,223.08v45.09a58.35,58.35,0,0,1,8.46-25.32Z"/><path class="cls-2" d="M465.32,223.24V342.79H430.67V296.47H393.38v46.32H358.73V310.5c-4.5,21.08-23.91,34.4-49.88,34.4-31.6,0-50.29-18.24-53.49-47.18V303c0,24.73-16.93,42.37-45.44,42.37-19.51,0-33.61-8.32-40.53-21.54l81,188.66c2.33.75,4.67,1.47,7,2.13l.05.13a212.17,212.17,0,0,0,126.44-3.55l29.42-12.63a212.6,212.6,0,0,0,108.93-142.7Z"/><path class="cls-2" d="M309.2,316.65c11.5,0,17.72-8.86,17.72-20.61h31.81v-26H326.92c0-11.93-6.22-20.79-17.72-20.79-12,0-18.94,9.74-18.94,28v11.58C290.26,306.91,297.19,316.65,309.2,316.65Z"/><path class="cls-2" d="M167.22,318.71h0l0,.09Z"/><path class="cls-2" d="M413.05,268.84l-19.59-45.79c-.46.53-.2,45.79-.2,45.79"/><path class="cls-3" d="M430.67,223.05v45.79H393.38V223.05H358.73V255.6c-4.5-21.25-23.91-34.57-49.88-34.57-31.6,0-50.29,18.1-53.49,47.14V223.05H240.19V301c0,18.6-11.85,30.61-30.27,30.61S179.75,319.63,179.75,301v-77.9H164.57V303c0,24.73,16.93,42.37,45.35,42.37S255.36,327.7,255.36,303v-5.25c3.2,28.94,21.89,47.18,53.49,47.18,26,0,45.38-13.32,49.88-34.4v32.29h34.65V296.47h37.29v46.32h34.65V223.05ZM326.92,296c0,11.75-6.22,20.61-17.72,20.61-12,0-18.94-9.74-18.94-27.81V277.26c0-18.24,6.93-28,18.94-28,11.5,0,17.72,8.86,17.72,20.79h31.81v26Z"/></svg>